<svg id="canvas" height="100%" xmlns="http://www.w3.org/2000/svg" version="1.1" xmlns:xlink="http://www.w3.org/1999/xlink" viewBox="0 0 900 512"><defs><linearGradient gradientTransform="matrix(6.123233995736766e-17,1,-1,6.123233995736766e-17,0,0)"><stop stop-color="#48cae4" offset="0"></stop><stop stop-color="#6248e4" offset="1"></stop></linearGradient><linearGradient gradientTransform="matrix(6.123233995736766e-17,1,-1,6.123233995736766e-17,0,0)" id="SvgjsLinearGradient1472"><stop stop-color="#ade8f4" offset="0"></stop><stop stop-color="#b9adf4" offset="1"></stop></linearGradient><linearGradient gradientTransform="matrix(6.123233995736766e-17,1,-1,6.123233995736766e-17,0,0)"><stop stop-color="#0096c7" offset="0"></stop><stop stop-color="#3100c7" offset="1"></stop></linearGradient><linearGradient gradientTransform="matrix(6.123233995736766e-17,1,-1,6.123233995736766e-17,0,0)"><stop stop-color="#0077b6" offset="0"></stop><stop stop-color="#3f00b6" offset="1"></stop></linearGradient><linearGradient gradientTransform="matrix(6.123233995736766e-17,1,-1,6.123233995736766e-17,0,0)"><stop stop-color="#023e8a" offset="0"></stop><stop stop-color="#4e028a" offset="1"></stop></linearGradient><linearGradient gradientTransform="matrix(6.123233995736766e-17,1,-1,6.123233995736766e-17,0,0)"><stop stop-color="#90e0ef" offset="0"></stop><stop stop-color="#9f90ef" offset="1"></stop></linearGradient><linearGradient gradientTransform="matrix(6.123233995736766e-17,1,-1,6.123233995736766e-17,0,0)"><stop stop-color="#caf0f8" offset="0"></stop><stop stop-color="#d2caf8" offset="1"></stop></linearGradient><linearGradient gradientTransform="matrix(6.123233995736766e-17,1,-1,6.123233995736766e-17,0,0)"><stop stop-color="#03045e" offset="0"></stop><stop stop-color="#5d035e" offset="1"></stop></linearGradient><linearGradient gradientTransform="matrix(6.123233995736766e-17,1,-1,6.123233995736766e-17,0,0)" id="SvgjsLinearGradient1473"><stop stop-color="#00b4d8" offset="0"></stop><stop stop-color="#2400d8" offset="1"></stop></linearGradient></defs><rect width="900" height="512" fill="#d7eef7ff"></rect><path d="M302.6791393418672 290.1374534383885C255.30717305529862 301.7922578746109 165.3805482125485 245.99821240120679 110.65581289128215 234.4499532231187C55.93107757001579 222.90169404503064 11.533750514392779 234.29121351304735 -25.669272585730937 220.84789836985993C-62.87229568585465 207.40458322667257 -89.84147812995788 188.89724817026053 -112.56232570946008 153.79006236399442C-135.28317328896227 118.68287655772832 -162.4495231803024 57.149626421394316 -161.99435806274414 10.20478353226332C-161.53919294518587 -36.740059356867675 -135.4492614511401 -85.05512592256864 -109.83133500411043 -127.87899497079152C-84.21340855708074 -170.7028640190144 -42.98587171236235 -221.83803663666237 -8.286799380566038 -246.73843075707407C26.41227295123028 -271.6388248774858 58.89166117134428 -276.23060452000453 98.36309898666752 -277.28135969326183C137.8345368019908 -278.33211486651913 192.0897556080816 -275.7344451567024 228.54182751137347 -253.04296179661787C264.99389941466535 -230.35147843653334 292.693556822 -180.05458092615626 317.0755304064188 -141.13245953275464C341.4575039908376 -102.21033813935301 361.86498898384036 -70.45249779263122 374.8336690178861 -19.510233436208125C387.80234905193186 31.43203092021497 406.9133655566967 112.91317879335116 394.8876106106935 164.52112660578393C382.8618556646903 216.1290744182167 350.0511056284357 278.48264900216606 302.6791393418672 290.1374534383885C255.30717305529862 301.7922578746109 165.3805482125485 245.99821240120679 110.65581289128215 234.4499532231187 " fill="url(#SvgjsLinearGradient1472)" stroke="none" opacity="0.5"></path><path d="M296.0081763258869 527.3083530351678C254.40288356446564 552.255179906391 182.23191488224285 540.1143056639962 128.87873791125764 537.4293114137306C75.52556094027244 534.7443171634648 13.962273705457221 527.6762053771242 -24.110885500024295 511.1983875335733C-62.18404470550581 494.72056969002233 -84.19367970969215 481.52507564126563 -99.56021732163146 438.5624043524249C-114.92675493357076 395.59973306358415 -133.05345739111175 307.6454222573786 -116.31011117166014 253.42235980052897C-99.56676495220852 199.19929734367935 -44.94853527303019 148.73696587774378 0.8998599950782875 113.22402961132713C46.74825526318676 77.71109334491047 105.12278382804303 39.37055502581324 158.78026043699077 40.34474220202907C212.43773704593855 41.318929378244896 274.8834490332441 84.9548094138162 322.8447196487648 119.06915266862208C370.80599026428547 153.18349592342796 437.2702549916115 200.2509354779028 446.5478841301149 245.0308017308643C455.82551326861824 289.81066798382585 403.60044578048974 340.70209163567387 378.51049447978505 387.7483501863911C353.42054317908037 434.7946087371084 337.61346908730815 502.3615261639446 296.0081763258869 527.3083530351678C254.40288356446564 552.255179906391 182.23191488224285 540.1143056639962 128.87873791125764 537.4293114137306 " fill="url(#SvgjsLinearGradient1472)" stroke="none" opacity="0.5"></path><path d="M854.7034858721049 896.5239677441989C808.6383029649639 900.3417504524932 725.850486184956 841.7603492809334 677.2416207657283 827.7802151021101C628.6327553465005 813.8000809232867 595.416727845813 826.033505504418 563.050293356738 812.643162671259C530.683858867663 799.2528198381 506.73575862052104 775.2651875255829 483.04301383127836 747.438158103156C459.35026904203573 719.6111286807289 429.09378775301656 676.7515671855217 420.8938246212822 645.6809861366971C412.6938614895478 614.6104050878723 423.47897527702986 596.7190510697981 433.84323504087223 561.0146718102077C444.2074948047146 525.3102925506173 456.8465933086205 465.87122404587205 483.0793832043365 431.4547105791545C509.31217310005246 397.038197112437 552.3117527455072 374.368331435982 591.239974415168 354.5155910099025C630.168196084829 334.66285058382306 680.104403537127 311.30582749308536 716.6487132223021 312.33826802267777C753.1930229074771 313.3707085522702 776.8029603268051 342.9321273332163 810.5058325262183 360.710234187457C844.2087047256316 378.48834104169777 894.1781587065354 388.70315885439334 918.8659464187817 419.0069091481222C943.553734131028 449.310659441851 947.7681515969348 501.50441511369075 958.6325587996962 542.5327359498299C969.4969660024576 583.5610567859692 984.8856964005373 621.4533703478717 984.0523896353502 665.1768341649574C983.2190828701631 708.9002979820431 975.1908688357813 766.3156632558039 953.6327182085738 804.8735188523441C932.0745675813663 843.4313744488843 900.7686687792459 892.7061850359046 854.7034858721049 896.5239677441989C808.6383029649639 900.3417504524932 725.850486184956 841.7603492809334 677.2416207657283 827.7802151021101 " fill="url(#SvgjsLinearGradient1473)" stroke="none" opacity="0.5"></path></svg>